<?xml version="1.0" encoding="utf-8"?>
<!-- Generator: Adobe Illustrator 15.0.2, SVG Export Plug-In . SVG Version: 6.00 Build 0)  -->
<!DOCTYPE svg PUBLIC "-//W3C//DTD SVG 1.1//EN" "http://www.w3.org/Graphics/SVG/1.1/DTD/svg11.dtd">
<svg version="1.1" id="Ebene_1" xmlns="http://www.w3.org/2000/svg" xmlns:xlink="http://www.w3.org/1999/xlink" x="0px" y="0px"
	  viewBox="0 0 155.028 186.813" enable-background="new 0 0 155.028 186.813"
	 xml:space="preserve">
<path fill="#A48A77" opacity="0.2" stroke="#CBBB9D" stroke-width="4" stroke-miterlimit="10" d="M154.163,12.634
	c-53.601-25.738-117.917-3.15-143.656,50.45c-20.589,42.88-2.521,94.334,40.36,114.924c34.304,16.472,75.466,2.016,91.939-32.288
	c13.178-27.444,1.613-60.374-25.83-73.551c-21.956-10.542-48.299-1.291-58.842,20.664c-8.434,17.564-1.033,38.639,16.532,47.073
	c14.051,6.746,30.911,0.825,37.657-13.225c5.398-11.241,0.661-24.729-10.58-30.127c-8.992-4.318-19.784-0.528-24.102,8.464
	c-3.455,7.194-0.422,15.827,6.771,19.281"/>
</svg>
